<svg xmlns="http://www.w3.org/2000/svg" viewBox="0 0 300.8 466.5" xml:space="preserve"><path fill="#FFF" d="M40 200.7s36.2 44.4 116.2 42.3 104.5-39.4 104.5-39.4l20.5 51.7s22 53.3 3.2 103.9c0 0-60.9 47.3-162.6 36.8-77.4-8-111.5-51.8-111.5-51.8s-4.8-49 10.4-91C35.8 211.9 40 200.7 40 200.7z"/><path fill="#E2B059" d="M260.7 203.7s-47.9 38.2-107.7 38.2c-70.2 0-92.3-24.8-113.7-39.4l25.1-116S86.9 9.9 153 9.5c0 0 75.1-11.5 93.8 81.1 0 0 9.8 36.2 10.8 86.4l3.1 26.7z"/><path fill="#56370A" d="M82.9 147.1s10.9 2 13.3 21.2 25.3 24.5 52.5 23.7 66.5 2.4 66.1-29.9c-.3-24.1 8.8-22.7 8.8-22.7s-77.1 11.6-140.7 7.7z"/><ellipse transform="matrix(.9993 -.03667 .03667 .9993 -3.67 6.875)" fill="#FFF" cx="185.6" cy="103.5" rx="18.6" ry="25.9"/><ellipse transform="rotate(-84.088 118.438 107.196)" fill="#FFF" cx="118.4" cy="107.2" rx="24.3" ry="18.3"/><path fill="#FFF" d="m102 147.5 1.6 10.3s17 4.7 64.8 0l38.9-9.4v-6.5c.1-.1-58.9 6.2-105.3 5.6z"/><path fill="#995B08" d="M123.3 190.1s1.5-26.3 27.8-20.2c0 0 4.3 7.2 13.3-1.6 0 0 20-9.8 30.5 17.6 0 0-20.8 8.9-71.6 4.2zM181.5 60.3l28.3 14.2-4.9-12.3c-1.2-3.3-4.8-5.1-8.1-4l-15.3 2.1zM121.9 65.2S98.7 71.4 92.2 79l7.1-15.2c-.1 0 18-4.1 22.6 1.4z"/><circle fill="#406DDC" cx="167.1" cy="365.1" r="5.8"/><circle fill="#406DDC" cx="165.7" cy="317" r="5.8"/><circle fill="#406DDC" cx="170" cy="269.9" r="5.8"/><path fill="#DBDBDB" d="M38.7 210s23.2 59.6 102.7 62.3c0 0 .7-16 14.8-27.2 0 0 11.5-2.2 27.9 31.8 0 0 37.8-1.1 62.5-41.4 0 0-23.5 28.8-58.9 32.7 0 0-8.7-20.5-23.5-25.5l-14.1.5s-10.8 8.3-13.8 21.5c-.1.1-71.8-.9-97.6-54.7zM82.9 303.4c-1.7 1.1 71.8-26.5 148.1 5.7.1 0-73.1-55.7-148.1-5.7z"/><ellipse transform="rotate(-84.088 118.438 107.196)" cx="118.4" cy="107.2" rx="9.9" ry="7.5"/><ellipse transform="matrix(.9993 -.03667 .03667 .9993 -3.67 6.875)" cx="185.6" cy="103.5" rx="7.5" ry="10.4"/><path fill="#FFF" d="m179.7 97.2 12.7 6.3-2.7-7.3-5.4-2zM113.5 101.2l12.7 6.3-2.6-7.3-5.5-2z"/><path fill="#204A9E" d="M56.5 424.1s107.9 79.8 198-10.7c0 0 32.6-35 28.2-52.8 0 0-46.2 37.2-128.3 37.6S20.6 359 11.5 346.5c0 0-2.1 45.7 45 77.6"/><g><path fill="#C48D3D" d="M131.8 203s11.4 6.1 52.2 0c0 0-33.9 25.5-52.2 0z"/><path fill="#123875" d="m252 417.7 18.7-24.4s-39 39.9-113.6 43.3c-74.6 3.5-134-48.4-134-48.4 4.2 16.4 34.8 36.8 34.8 36.8s101.7 75.4 194.1-7.3z"/></g><g><path d="M82.6 149.1c18.5.6 37 .6 55.4 0s36.7-1.9 55.1-3.7c10.4-1 20.8-2.3 31.1-3.7 1.1-.1 1.7-1.5 1.4-2.5-.3-1.2-1.4-1.5-2.5-1.4-18.1 2.5-36.3 4.4-54.6 5.7s-36.6 2-54.9 2.1c-10.3.1-20.7-.1-31-.4-2.6-.2-2.6 3.8 0 3.9zM180.9 62.2c10.7 4 20.6 10.1 29 17.9 1.3 1.2 4.1 0 3.3-1.9-1.3-3.4-2.8-6.8-4.2-10.2l-2.7-6c-.8-1.7-1.7-3.4-3.2-4.5-3-2.2-7.4-1.5-10.9-1.3-3.6.2-7.4.5-10.9 1.6-2.4.8-1.4 4.6 1.1 3.9 2.9-.9 6.1-1.2 9.1-1.4l5.1-.3c1.4-.1 3.1-.1 4.2.9 1.2 1 1.8 2.9 2.5 4.3.8 1.7 1.6 3.4 2.3 5.1 1.3 3 2.6 6 3.8 9 1.1-.6 2.2-1.3 3.3-1.9-9-8.2-19.4-14.6-30.8-18.9-1-.4-2.2.4-2.5 1.4-.2 1 .5 1.9 1.5 2.3zM126 61.1c-8.3-2.6-16.9-1.7-25.4-.7-2.3.3-3.5 1.3-4.5 3.3-.9 1.7-1.9 3.5-2.8 5.2-1.8 3.5-3 7.1-3.4 11.1-.2 2.1 2.7 2.5 3.7 1 6.8-10 19.4-13.1 30.5-15.3 2.5-.5 1.5-4.4-1.1-3.9-12.3 2.5-25.5 6.2-32.9 17.1 1.2.3 2.5.7 3.7 1 .3-3.2 1.4-6.2 2.9-9.1.8-1.5 1.6-3 2.4-4.4.3-.5.7-1.8 1.2-2.1.6-.4 2-.2 2.7-.3 7.4-.8 14.8-1.4 22 .8 2.4 1 3.5-2.9 1-3.7z"/><path d="M150.8 7.6c-15.9.3-31.3 4.3-44.3 13.7-14.2 10.4-25.6 25-33.7 40.5C53.2 99.2 51.3 142 42 182.4c-4.9 21.3-13.1 41.4-20.4 62-7.1 20.5-12 41.6-13.6 63.2-.8 10.8-.8 21.7 0 32.5.7 10.4 2.1 20.8 5 30.9 4.8 16.7 14.4 31.3 27.2 42.9 12.5 11.3 27.3 19.8 42.7 26.5 17.1 7.4 35.3 13.3 53.7 16.6 10.4 1.9 21.1 2.7 31.7 1.5 10.8-1.2 21.2-4.2 31.4-8 18.6-6.9 36.5-16.1 51.2-29.7 27.2-25.2 41.8-61.7 43.2-98.4.8-20.6-2.4-41.4-8.5-61-3.2-10.1-7.3-19.7-11.6-29.3-4.3-9.6-8.5-19.3-10.8-29.6-4.8-21.2-3.4-43.1-5.4-64.6s-6.6-42.7-13.5-63.2c-5.2-15.1-11.5-30.4-22.3-42.5-11.3-12.8-26.7-19.5-43.2-22.5-9.3-1.5-18.7-2.2-28-2.1-2.6 0-2.6 4 0 4 17.8-.3 37.4 2 53 11 13.2 7.6 22.2 20 28.6 33.5 8.2 17.2 13.5 36 17.2 54.6 2.1 10.4 3.5 20.9 4.4 31.4.8 10.3 1 20.7 1.5 31.1.5 10.3 1.4 20.7 3.8 30.8 2.3 9.9 6.3 19.3 10.5 28.6s8.2 18.6 11.4 28.3c3.1 9.7 5.5 19.6 7.1 29.7 5.7 37.2-1.2 76.2-22.9 107.5-10.5 15.1-24.2 27.5-40.2 36.6-8.7 5-17.9 9-27.4 12.4-9.9 3.6-20.2 6.6-30.8 7.7-20.4 2-40.8-3.3-60.1-9.5-15.8-5.1-31.2-11.5-45.3-20.2-13.6-8.4-26.1-19.2-34.8-32.8-10.7-16.7-14-36.3-15.1-55.8-1.1-21.1.7-42.3 5.4-62.9 4.8-20.8 13.1-40.4 20.1-60.5s11.2-40.7 14.8-61.6c3.5-20.1 6.8-40.3 12.9-59.8 5.6-18 13.8-35.4 26-49.9 10-11.8 21.9-22 36.9-26.7 7.4-2.3 15.2-3.2 22.9-3.4 2.7-.1 2.7-4.1.1-4.1z"/><path d="M38 204c12 10.1 25.3 18.5 39.5 25s29.3 11.2 44.7 13.8c15.6 2.6 31.4 3.1 47.1 1.4 15.7-1.7 31.1-5.5 45.8-11.3s28.6-13.4 41.2-22.9c1.6-1.2 3.2-2.4 4.7-3.7.8-.7.7-2.1 0-2.8-.8-.8-2-.7-2.8 0-12 9.6-25.4 17.6-39.5 23.7-14.1 6.1-29 10.2-44.2 12.4-15.1 2.2-30.6 2.2-45.8.2-15.1-2-30-6.1-44.1-12s-27.4-13.7-39.4-23.1c-1.5-1.2-3-2.4-4.4-3.6-2-1.6-4.8 1.2-2.8 2.9z"/><path d="M35.1 206.8c5.8 14 15.5 25.8 27.4 34.9 13 10.1 28.5 16.6 44.4 20.5 9.5 2.3 19.1 3.8 28.8 4.6.8.1 1.7-.7 1.9-1.5 2-8 7.2-14.9 14.4-18.9 2.2-1.3.2-4.7-2-3.5-8 4.5-14 12.3-16.3 21.3.6-.5 1.3-1 1.9-1.5-16.5-1.4-33.1-4.7-48.4-11.3-13.6-5.8-26-14.3-35.7-25.5-5.2-6-9.6-12.9-12.6-20.3-.4-1-1.3-1.7-2.5-1.4-.9.4-1.8 1.6-1.3 2.6zM261.3 204c-3.8 12.8-10.7 24.5-19.7 34.3S221.4 256 209.1 261c-6.9 2.8-14.3 4.9-21.7 5.8.6.5 1.3 1 1.9 1.5-4.1-11.2-12.1-20.7-22.6-26.4-2.3-1.2-4.3 2.2-2 3.5 9.5 5.2 17 13.8 20.7 24 .3.7 1 1.6 1.9 1.5 13.9-1.7 27.3-6.7 39-14.4s21.8-17.9 29.1-29.8c4.1-6.7 7.4-13.9 9.6-21.5.9-2.6-3-3.7-3.7-1.2zM281.8 358.8c-15.7 10.1-32.7 18.3-50.4 24.3-17.6 6-36 10-54.5 11.8-18.6 1.8-37.5 1.5-56.1-.9-18.4-2.4-36.6-7.1-53.9-13.9-17.8-7-35.4-16.2-49.1-29.8-1.7-1.7-3.4-3.5-5-5.3-1.7-1.9-4.5.9-2.8 2.8 13 15 30.4 25.3 48.4 33 17.5 7.5 35.9 12.9 54.7 15.9 18.7 3.1 37.8 3.9 56.8 2.6s37.9-4.8 56.1-10.4c18.1-5.6 35.6-13.3 51.8-23.1 2-1.2 4-2.4 5.9-3.7 2.3-1.2.3-4.7-1.9-3.3z"/><path d="M154.3 244.6c-3.4 19.8-5.6 39.8-6.7 59.9-1.1 20-1.1 40 0 60 .6 11.3 1.6 22.5 3 33.8.1 1.1.8 2 2 2 1 0 2.1-.9 2-2-2.4-19.8-3.7-39.7-3.8-59.6-.2-19.9.8-39.8 2.9-59.6 1.2-11.1 2.7-22.2 4.6-33.3.2-1.1-.3-2.2-1.4-2.5-1.1-.3-2.4.2-2.6 1.3zM169.7 362.1c-.5-.4.1.1.2.3.1.1.2.2.2.3l-.2-.2c0 .1.1.1.1.2.1.2.3.4.4.6.1.3 0 .3 0 0 0 .1.1.3.2.5s.1.5.2.7c.1.3-.1.3 0-.1v1.1c0 .1-.1.3 0 .4 0-.3.1-.4 0-.2v.2c0 .2-.1.5-.2.7 0 .1-.1.2-.1.3-.1.4.2-.4 0 0l-.3.6c-.1.1-.1.2-.2.3-.2.3.3-.3-.1.1l-.5.5c-.3.3.4-.2 0 0-.1 0-.1.1-.2.1-.1.1-.2.1-.3.2-.4.2 0 0 0 0s-.8.2-.9.2c-.4.1.5 0 0 0h-.4c-.2 0-.6-.1-.8 0h.3-.3c-.1 0-.3-.1-.4-.1-.1 0-.2-.1-.4-.1-.1 0-.2-.1-.2-.1-.2-.1-.2-.1.1.1 0 0-1.3-.6-1.3-.8l.2.2-.2-.2-.3-.3-.3-.3-.2-.2c-.1-.2-.1-.1.1.1l-.4-.6s-.1-.3-.2-.3c0 .1.1.2.1.2 0-.1-.1-.2-.1-.2-.1-.2-.1-.5-.2-.7-.1-.4 0 .1 0 .1v-.9c0-.5-.1.5 0 0 .1-.3.1-.5.2-.7.1-.4-.2.4 0 0 .1-.1.1-.2.2-.3.1-.1.1-.2.2-.3 0-.1.1-.1.1-.2.1-.2.1-.1-.1.1 0-.1.6-.6.6-.7l.3-.3c.2-.1.1-.1-.1.1l.2-.2c.3-.2.5-.3.8-.5.4-.2 0-.1 0 0 0 0 .4-.2.5-.2s.2-.1.4-.1c.1 0 .4 0 .5-.1h-.3.8c.1 0 .3.1.4 0-.3 0-.4-.1-.1 0 .1 0 .2 0 .3.1.1 0 .3.1.4.1.1 0 .2.1.2.1-.3-.1-.3-.1-.1 0 .9.4 2.2.3 2.7-.7.5-.9.3-2.3-.7-2.7-3.1-1.4-6.5-.6-8.9 1.6-2.4 2.3-3.2 5.8-1.6 8.8 1.4 2.7 4.5 4.5 7.5 4.5 3.2 0 5.9-2.2 6.8-5.2.5-1.5.5-3.2.1-4.8-.4-1.7-1.5-3.1-2.9-4.2-.8-.6-2.3-.2-2.7.7-.4.7 0 1.7.9 2.4zM170.9 313.7c-2.2-6.2-12.3-5.1-13.2 1.5-.5 3.4 1.6 6.8 4.6 8.3 3.4 1.7 7.7.7 9.9-2.4 1.2-1.6 1.4-3.8.6-5.7-.9-2.1-2.5-3.5-4.8-3.8-1-.1-2 1-2 2 .1 1.2.9 1.9 2 2-.6-.1-.1 0 0 0h.1c.2.1.2.1-.1 0 0 0 .3.2.4.2.4.2-.3-.3 0 0l.2.2c.1.1.3.2 0 0 .1.1.2.3.2.3 0 .1.1.2.1.2.1.2.1.2 0-.1.1.2.2.5.2.7.1.4.1 0 0 0v.5-.1c0 .1-.1.3-.1.4s-.2.5 0 .1c-.1.1-.1.3-.2.4-.1.1-.2.3-.3.4.3-.4 0 0-.1.1l-.3.3c-.3.4.3-.2-.1.1-.2.1-.4.3-.7.4-.1 0-.6.2-.1.1-.2.1-.4.1-.6.2-.1 0-.9.2-.4.1-.3 0-.6.1-.9 0-.2 0-.5.1-.1 0-.1 0-.3-.1-.4-.1-.3-.1-.6-.1-.8-.3.4.3 0 0-.1 0-.1-.1-.3-.1-.4-.2-.1-.1-.7-.5-.3-.2-.2-.2-.4-.4-.7-.6l-.3-.3c-.1-.2-.1-.1 0 .1-.1-.1-.1-.2-.2-.2-.1-.2-.3-.4-.4-.6-.1-.1-.2-.3-.2-.4 0 .1.1.1.1.2 0-.1-.1-.2-.1-.3-.1-.3-.2-.5-.2-.8-.1-.3-.1 0 0 .1-.1-.1 0-.5 0-.6v-.4c0-.5-.1.4 0 0 0-.1.1-.6.2-.7 0 .1-.1.2-.1.2 0-.1.1-.1.1-.2.1-.1.1-.2.2-.3.2-.2.3-.2 0 0l.3-.3.2-.2c.2-.2.3 0 0 0 .2 0 .4-.3.6-.4.1-.1.2-.1.3-.2-.3.2-.3.1-.2.1.3-.1.5-.2.8-.2.1 0 .2 0 .3-.1-.5.2-.2 0 .1 0h1c-.6 0-.2 0 0 0 .2.1.4.1.7.2.4.1-.4-.2-.1 0 .1.1.3.1.4.2 0 0 .3.1.3.2-.2-.2-.3-.2-.2-.1l.1.1.2.2c.2.2-.3-.4 0 0 .1.1.1.2.2.3.3.5-.1-.3 0 .1.3 1 1.4 1.7 2.5 1.4 1.4.1 2.2-1 1.8-2.1zM173.2 265.3c-.3-1.9-2.1-2.9-3.9-3.1-1.6-.1-3.2.5-4.4 1.5s-2.1 2.7-2.3 4.3c-.3 1.8-.1 3.5.6 5.2.6 1.5 1.8 2.8 3.3 3.5 1.6.8 3.3.9 5 .7 3.3-.5 6-3.3 6.1-6.7.1-3.9-3.1-7.6-7-7.7-1 0-2 .9-2 2s.9 2 2 2h.4-.2.2c.1 0 .3.1.4.1.1 0 .1 0 .2.1.4.1-.3-.2-.1 0 .2.1.5.3.7.4.4.2-.2-.2 0 0l.3.3.3.3.1.1c.2.2-.1.1-.1-.1 0 .2.4.5.5.7.1.1.1.3.2.4 0 0-.1-.4-.1-.2 0 .1 0 .1.1.2.1.3.2.6.2.9.1.4 0-.4 0-.1v.8-.2.2c-.1.3-.2.5-.2.8l.1-.2s-.1.1-.1.2c-.1.1-.2.3-.2.4-.2.4.2-.2 0 0l-.3.3-.3.3s-.1.1-.2.1c0-.1.4-.3.1-.1-.2.1-.4.3-.7.4-.1 0-.5.2-.2.1s-.1 0-.2.1c-.3.1-.5.2-.8.2-.2 0-.5 0 0 0h-1.5.3c-.1-.1-.3-.1-.5-.1-.2-.1-.5-.2-.7-.2.4.1.3.2.2.1-.1 0-.1-.1-.2-.1-.1-.1-.3-.1-.4-.2l-.1-.1.2.1-.3-.3-.3-.3s-.1-.2-.2-.2c.1 0 .3.4.1.1-.2-.2-.3-.5-.4-.7 0-.1-.2-.5-.1-.2s-.1-.2-.1-.3c-.1-.3-.1-.5-.2-.8-.1-.4 0 .4 0 0V269c0-.4-.1.5 0 0 0-.2.1-.3.1-.5 0-.1.1-.3.1-.4s.2-.5.1-.2.1-.1.1-.2c.1-.1.2-.3.2-.4.1-.1.2-.3.3-.4 0 0-.3.3-.1.2.1-.1.1-.2.2-.2l.3-.3c.1-.1.2 0-.2.1.1 0 .1-.1.2-.1.1-.1.2-.1.4-.2s.2 0-.2.1c.1 0 .1-.1.2-.1s.3-.1.4-.1h.2c.3-.1-.2 0-.2 0h.8c-.5 0-.4-.1-.2 0 .1 0 .2 0 .2.1h.1c.3.1-.4-.2-.2-.1.1.1.4.3.1.1-.4-.3.2.3 0-.1-.3-.4.2.4 0-.1-.1-.4 0 .1 0 .2.2 1 1.5 1.7 2.5 1.4 1-.4 1.5-1.4 1.3-2.5z"/><path fill="#56370A" d="M230.7 109.6c-.1-.4-.2-.7-.4-1s-.4-.6-.7-.9-.5-.5-.9-.7c-.3-.2-.7-.3-1-.4-.4-.1-.7-.1-1.1 0-.3.1-.6.3-.9.5-.5.5-.7 1.3-.5 1.9.2.7.4 1.3.6 2 .2.7.7 1.2 1.4 1.4.4.1.7.1 1.1 0 .3-.1.6-.3.9-.5.4-.4.7-.9 1-1.4.3-.2.4-.5.5-.9.1-.2.1-.5.2-.8 0-.2.1-.3.1-.5s0-.5-.1-.8c0-.3-.2-.6-.3-.9-.3-.5-.7-.9-1.2-1.2-1-.5-2.2-.6-3.2-.1-.6.4-1 .9-1.2 1.6-.1.5-.1 1.1.2 1.6.1.2.3.4.4.5.2.2.4.4.7.5.5.2.8.3 1.3.4.3 0 .6 0 .9-.1.7-.2 1.5-.7 1.8-1.4.2-.5.3-1 .2-1.5s-.5-1-.9-1.2c-.5-.2-1-.4-1.5-.2s-1 .5-1.2.9l-.1.1c.1-.1.2-.3.3-.4 0 .1-.1.1-.2.2.1-.1.3-.2.4-.3-.1.1-.1.1-.2.1.2-.1.3-.1.5-.2-.1 0-.2.1-.3.1.2 0 .4 0 .5-.1h-.3c.2 0 .4 0 .5.1-.1 0-.2 0-.3-.1.2.1.3.1.5.2-.1 0-.1-.1-.2-.1.1.1.3.2.4.3-.1 0-.1-.1-.2-.2.1.1.2.3.3.4 0 0 0-.1-.1-.1.1.5.1 1 .2 1.5 0-.1 0-.1.1-.2-.1.2-.1.3-.2.5 0 0 0-.1.1-.1-.1.1-.2.3-.3.4l.1-.1c-.1.1-.3.2-.4.3l.1-.1c-.2.1-.3.1-.5.2.1 0 .2-.1.2-.1-.2 0-.4 0-.5.1h.3c-.2 0-.4 0-.5-.1.1 0 .3.1.4.1-.2-.1-.3-.1-.5-.2.1 0 .2.1.3.2-.1-.1-.3-.2-.4-.3.1.1.2.1.2.2-.1-.1-.2-.3-.3-.4 0 .1.1.1.1.2-.1-.2-.1-.3-.2-.5 0 .1.1.2.1.3 0-.2 0-.4-.1-.5v.5c0-.2 0-.4.1-.5 0 .2-.1.4-.2.6.1-.2.1-.3.2-.5-.2.4-.4.7-.6 1 .1-.1.2-.3.3-.4-.1.1-.2.3-.3.4l3.3.9c-.2-.7-.4-1.3-.6-2l-2.5 2.5c.2 0 .3.1.4.1-.2-.1-.3-.1-.5-.2.2.1.3.2.4.3-.1-.1-.3-.2-.4-.3.1.1.2.2.3.4-.1-.1-.2-.3-.3-.4.1.1.2.3.2.4-.1-.2-.1-.3-.2-.5.1.1.1.3.1.4.1.3.2.5.4.7.1.2.3.4.6.5.2.1.5.2.7.2.3.1.5 0 .8 0 .5-.2 1-.5 1.2-.9.1-.2.1-.3.2-.5.5-.2.5-.6.4-.9zM235 84.6c-.2 0-.5-.1-.6-.1h-.3c-.4 0-.4 0-.8.3l-.4.3c-.1.1-.3.3-.4.5 0 .1-.2.4-.2.5v.1c0 .2-.1.4-.1.6v.1c0 .2 0 .4.1.6v.2c.1.2.1.4.2.5v.1c.1.1.2.3.3.4.1 0 .4.3.4.3.2.1.3.2.5.2s.4.1.6.1c.1 0 .5-.1.5-.1.2 0 .4-.1.6-.2.1-.1.2-.1.2-.2.1 0 .1-.1.2-.2.2-.2.3-.4.4-.6.1-.2.2-.5.2-.8s0-.5-.2-.8c-.1-.2-.2-.5-.4-.6-.1-.1-.3-.2-.4-.3-.3-.2-.6-.3-1-.3-.2 0-.4 0-.5.1-.3.1-.6.3-.9.5.1-.1.3-.2.4-.3h-.1c.2-.1.3-.1.5-.2h-.1c.2 0 .4 0 .5-.1.2 0 .4 0 .5.1.2.1.3.1.5.2h-.1c.1.1.3.2.4.3l-.1-.1c.1.1.2.3.3.4l-.1-.1c.1.2.1.3.2.5 0-.1 0-.1-.1-.2 0 .2 0 .4.1.5v-.2c0 .2 0 .4-.1.5V87c-.1.2-.1.3-.2.5v-.1c-.1.1-.2.3-.3.4-.1.1-.3.2-.4.3-.2.1-.3.1-.5.2-.2 0-.4 0-.5.1h.1c-.2 0-.4 0-.5-.1h.1c.3.1.5.1.8 0 .3 0 .5-.1.7-.2s.4-.3.6-.5c.2-.2.3-.4.4-.7 0-.2 0-.4.1-.5 0-.4-.1-.7-.3-1-.1-.1-.2-.3-.3-.4.2-.1-.1-.3-.5-.4z"/><path d="M82.4 149.4c5.4 1.1 8.4 6.4 9.9 11.3 1.9 6.2 2.3 12.8 5.7 18.5 6.6 11 20.9 12.6 32.4 13.7 14.9 1.5 30 1.4 44.8-.2 7.3-.8 14.7-1.9 21.9-3.6 6.3-1.5 12.1-4.3 15.6-10 3.6-5.7 4.3-12.7 4.4-19.3.1-6.6-.1-15.6 7-18.7 1-.4 1.2-1.9.7-2.7-.6-1-1.7-1.2-2.7-.7-6 2.7-8.3 9.4-8.8 15.5-.5 6.3.1 12.6-1.7 18.8-1.7 5.7-5.4 10-11.1 12.1-3.1 1.1-6.3 1.8-9.6 2.4-3.6.7-7.3 1.3-11 1.8-14.8 2-29.9 2.4-44.8 1.2-6.4-.5-13-1.1-19.2-2.7-5.1-1.4-10.4-3.7-13.7-8.1-4.2-5.8-4.2-13.3-6.5-19.9-2-5.8-5.9-11.8-12.4-13.1-2.4-.7-3.4 3.2-.9 3.7z"/><path d="M100 149.2c.2 1.9.4 3.7.7 5.6.3 1.7.5 3.6 2 4.8 2.6 2.1 6.9 2.2 10.1 2.2 7.8 0 15.6-.3 23.4-.5 7.9-.2 15.8-.2 23.7-.7 7.6-.5 15.3-1.6 22.7-3.2 8.6-1.8 17-4.2 25.3-7 1.1-.4 1.6-1.3 1.4-2.5-.2-1.4-.4-2.8-.6-4.1-.2-1.1-1.5-1.7-2.5-1.4-1.2.3-1.5 1.4-1.4 2.5.2 1.4.4 2.8.6 4.1.5-.8.9-1.6 1.4-2.5-13.7 4.6-27.9 8.3-42.4 9.7-7.4.7-14.9.8-22.4 1s-15 .3-22.4.5c-3.8.1-7.9.6-11.6-.2-.8-.2-1.6-.4-2.3-.7-.7-.3-.7-.9-.9-1.7-.4-2-.7-3.9-.8-5.9-.1-1.1-.9-2-2-2-1 0-2.1.9-2 2zM156 179.1c3.1-7.7 11.8-11.3 19.7-10.3 4.3.6 7.8 2.6 10.6 5.9 2.8 3.4 5.1 7.4 6.6 11.5.4 1 1.3 1.7 2.5 1.4 1-.3 1.8-1.4 1.4-2.5-1.4-3.8-3.3-7.4-5.6-10.6-2.4-3.3-5.1-6.3-8.9-8-7.1-3.1-16.1-2.4-22.5 2-3.4 2.4-6 5.6-7.6 9.5-.4 1 .4 2.2 1.4 2.5 1.1.3 2-.4 2.4-1.4z"/><path d="M158.4 172.2c-5.1-4.7-12.1-6.6-18.9-5.6-6.6 1-12.4 5.4-15.6 11.3-1.8 3.3-2.7 7.1-2.7 10.9 0 2.6 4 2.6 4 0-.1-7.1 4-13.9 10.5-16.9 6.4-3 14.6-1.6 19.8 3.2 2 1.6 4.8-1.2 2.9-2.9z"/><ellipse transform="matrix(.9993 -.03667 .03667 .9993 -3.67 6.875)" fill="none" stroke="#000" stroke-width="4" stroke-miterlimit="10" cx="185.6" cy="103.5" rx="18.6" ry="25.9"/><ellipse transform="rotate(-84.088 118.438 107.196)" fill="none" stroke="#000" stroke-width="4" stroke-miterlimit="10" cx="118.4" cy="107.2" rx="24.3" ry="18.3"/><ellipse transform="rotate(-84.088 118.438 107.196)" fill="none" stroke="#000" stroke-width="4" stroke-miterlimit="10" cx="118.4" cy="107.2" rx="9.9" ry="7.5"/><ellipse transform="matrix(.9993 -.03667 .03667 .9993 -3.67 6.875)" fill="none" stroke="#000" stroke-width="4" stroke-miterlimit="10" cx="185.6" cy="103.5" rx="7.5" ry="10.4"/></g><path fill="none" d="M0 0h300.8v466.5H0z"/></svg>